<svg width="66" height="84" viewBox="0 0 66 84" fill="none" xmlns="http://www.w3.org/2000/svg">
<path d="M58.1123 29.9545C57.5005 39.7534 66 49.4029 66 59.221C66 65.9442 61.1061 71.5233 54.6898 72.5834C54.2469 72.6566 53.8899 72.9938 53.7917 73.4318C52.4357 79.4786 47.04 83.9963 40.5901 83.9963C38.0202 83.9963 35.6177 83.2791 33.5714 82.0338C33.221 81.8205 32.779 81.8205 32.4286 82.0338C30.3823 83.2791 27.9798 83.9963 25.4099 83.9963C18.96 83.9963 13.5643 79.4786 12.2083 73.4318C12.1101 72.9938 11.7531 72.6566 11.3102 72.5834C4.89385 71.5233 0 65.9442 0 59.221C0 49.4036 8.49817 39.7547 7.88639 29.9563L7.12872 17.8212C6.8047 12.6317 9.46584 7.711 13.9861 5.14131L14.2829 4.97262C26.0735 -1.7301 40.5401 -1.65191 52.2576 5.17787C56.6358 7.7298 59.2001 12.5331 58.8843 17.5909L58.1123 29.9545Z" fill="#F3F3F3"/>
</svg>
