<svg width="369" height="363" viewBox="0 0 369 363" fill="none" xmlns="http://www.w3.org/2000/svg">
<path d="M200.67 333.432L92.365 282.251L185.003 198.864C288.657 -11.2457 426.405 193.85 324.645 144.468C240.31 187.728 344.085 316.096 200.67 333.432Z" fill="url(#paint0_linear)"/>
<path d="M41.5586 142.67C41.5586 142.67 -9.3401 235.384 6.3077 293C21.9555 350.616 83.264 342.665 83.264 342.665H127.179H163.372C163.372 342.665 224.907 349.109 235.808 301C246.709 252.891 195.143 143.828 195.143 143.828L118.351 143.249L41.5586 142.67Z" fill="#EBE9E9"/>
<path d="M0 82L91.1263 329.639L79.0381 355H88H99.5591H111.118L123.671 329.639V206.317L130.18 329.639L138.084 349.53L163.655 343.563L158.076 329.639L232 82H0Z" fill="url(#paint1_linear)"/>
<g filter="url(#filter0_f)">
<path d="M2 83C29.1539 113.893 38.2777 92.0778 71.4205 114C104.563 135.922 126.036 135.922 161.513 114C196.99 92.0778 204.326 111.338 230 83" stroke="#BABABA" stroke-linejoin="round"/>
</g>
<path d="M0 82C91.8777 -0.0944901 142.597 4.12227 232 82H0Z" fill="#EBE9E9"/>
<path d="M129.26 59.4015C121.937 70.1167 123.577 83.9819 132.925 90.3704C142.272 96.7589 155.786 93.2514 163.109 82.5363C170.433 71.8211 168.792 57.9559 159.445 51.5674C150.098 45.1789 136.583 48.6864 129.26 59.4015Z" fill="#4CB5F0"/>
<path d="M132.642 90.7832C123.016 84.2039 121.405 70.0078 128.847 59.1194C136.289 48.231 150.101 44.5753 159.727 51.1546C169.353 57.7339 170.964 71.93 163.522 82.8184C156.08 93.7068 142.269 97.3625 132.642 90.7832Z" stroke="#020202" stroke-opacity="0.81"/>
<path d="M123.815 75.1317C124.266 85.4048 132.447 93.3901 142.09 92.9674C151.732 92.5447 159.184 83.8741 158.733 73.601C158.283 63.328 150.101 55.3427 140.459 55.7654C130.816 56.1881 123.365 64.8587 123.815 75.1317Z" fill="#370E0E"/>
<path d="M110 354H81L91 332.5H121L110 354Z" fill="url(#paint2_linear)"/>
<path d="M89.1096 59.4015C96.433 70.1167 94.7923 83.9819 85.445 90.3704C76.0978 96.7589 62.5835 93.2514 55.2602 82.5363C47.9368 71.8211 49.5775 57.9559 58.9247 51.5674C68.272 45.1789 81.7862 48.6864 89.1096 59.4015Z" fill="#4CB5F0"/>
<path d="M85.7272 90.7832C95.3535 84.2039 96.9642 70.0078 89.5224 59.1194C82.0806 48.231 68.269 44.5753 58.6426 51.1546C49.0162 57.7339 47.4056 71.93 54.8474 82.8184C62.2891 93.7068 76.1008 97.3625 85.7272 90.7832Z" stroke="#020202" stroke-opacity="0.81"/>
<path d="M94.5544 75.1317C94.1041 85.4048 85.9223 93.3901 76.2799 92.9674C66.6375 92.5447 59.1859 83.8741 59.6362 73.601C60.0866 63.328 68.2684 55.3427 77.9108 55.7654C87.5532 56.1881 95.0048 64.8587 94.5544 75.1317Z" fill="#370E0E"/>
<path d="M90 81.5267C105.324 67.243 109.502 73.4945 122 81.5267L117.493 102L105.324 88.6687L94.507 102L90 81.5267Z" fill="#898989"/>
<path d="M47 0L51 43L75.5 31L47 0Z" fill="url(#paint3_linear)"/>
<path d="M47 0L75.5 31L82.5 27.5L47 0Z" fill="url(#paint4_linear)"/>
<path d="M47 0L75.5 31L82.5 27.5L47 0Z" fill="url(#paint5_linear)"/>
<path d="M47 0L75.5 31L82.5 27.5L47 0Z" fill="url(#paint6_linear)"/>
<path d="M47 0L75.5 31L82.5 27.5L47 0Z" fill="url(#paint7_linear)"/>
<path d="M184.5 1L180.5 44L156 32L184.5 1Z" fill="url(#paint8_linear)"/>
<path d="M184.5 1L156 32L149 28.5L184.5 1Z" fill="url(#paint9_linear)"/>
<path d="M184.5 1L156 32L149 28.5L184.5 1Z" fill="url(#paint10_linear)"/>
<path d="M184.5 1L156 32L149 28.5L184.5 1Z" fill="url(#paint11_linear)"/>
<path d="M184.5 1L156 32L149 28.5L184.5 1Z" fill="url(#paint12_linear)"/>
<path d="M47 0L75.5 31L82.5 27.5L47 0Z" fill="#838383"/>
<path d="M184.5 1L156 32L149 28.5L184.5 1Z" fill="#838383"/>
<path d="M99.6726 76.403C96.7494 78.9522 104.301 86 104.301 86C104.301 86 114.045 78.4551 111.609 76.4031C109.173 74.3511 107.085 80.8046 104.301 80.7516C101.629 80.7008 101.104 75.1545 99.6726 76.403Z" fill="#662540"/>
<path d="M158 329L132 331.5L138.5 348.5L163.5 343L158 329Z" fill="url(#paint13_linear)" fill-opacity="0.8"/>
<path d="M131.5 332L138 349L163.5 343.5L158 329.5" stroke="#D3D3D3"/>
<path d="M147.5 347L143 336.5" stroke="#D3D3D3"/>
<path d="M156.5 345L151 333.5" stroke="#D3D3D3"/>
<g filter="url(#filter1_if)">
<path d="M94.8722 78.8078C95.1503 82.3869 94.9028 101.31 76.1815 102.765C57.4602 104.219 52.2782 84.5791 52.0002 81C51.7221 77.4209 57.4089 96.4092 76.1302 94.9548C94.8515 93.5004 94.5942 75.2288 94.8722 78.8078Z" fill="#717171" fill-opacity="0.73"/>
</g>
<g filter="url(#filter2_if)">
<path d="M123.738 77.5739C123.46 81.153 123.707 100.077 142.428 101.531C161.15 102.985 166.332 83.3452 166.61 79.7661C166.888 76.1871 161.201 95.1753 142.48 93.7209C123.758 92.2666 124.016 73.9949 123.738 77.5739Z" fill="#717171" fill-opacity="0.73"/>
</g>
<path d="M85.5371 342.667L80.0942 354.283H90.7393M115.969 343.73L110.692 354.283H100.716M90.7393 354.283L95.7044 342.667M90.7393 354.283H100.716M100.716 354.283L105.635 343.73" stroke="#D2D2D2" stroke-width="1.2"/>
<defs>
<filter id="filter0_f" x="0.624512" y="81.6643" width="230.746" height="50.2773" filterUnits="userSpaceOnUse" color-interpolation-filters="sRGB">
<feFlood flood-opacity="0" result="BackgroundImageFix"/>
<feBlend mode="normal" in="SourceGraphic" in2="BackgroundImageFix" result="shape"/>
<feGaussianBlur stdDeviation="0.5" result="effect1_foregroundBlur"/>
</filter>
<filter id="filter1_if" x="43.9658" y="69.2339" width="60.6442" height="43.2677" filterUnits="userSpaceOnUse" color-interpolation-filters="sRGB">
<feFlood flood-opacity="0" result="BackgroundImageFix"/>
<feBlend mode="normal" in="SourceGraphic" in2="BackgroundImageFix" result="shape"/>
<feColorMatrix in="SourceAlpha" type="matrix" values="0 0 0 0 0 0 0 0 0 0 0 0 0 0 0 0 0 0 127 0" result="hardAlpha"/>
<feOffset dy="4"/>
<feGaussianBlur stdDeviation="2"/>
<feComposite in2="hardAlpha" operator="arithmetic" k2="-1" k3="1"/>
<feColorMatrix type="matrix" values="0 0 0 0 0 0 0 0 0 0 0 0 0 0 0 0 0 0 0.25 0"/>
<feBlend mode="normal" in2="shape" result="effect1_innerShadow"/>
<feGaussianBlur stdDeviation="4" result="effect2_foregroundBlur"/>
</filter>
<filter id="filter2_if" x="114" y="68" width="60.6442" height="43.2677" filterUnits="userSpaceOnUse" color-interpolation-filters="sRGB">
<feFlood flood-opacity="0" result="BackgroundImageFix"/>
<feBlend mode="normal" in="SourceGraphic" in2="BackgroundImageFix" result="shape"/>
<feColorMatrix in="SourceAlpha" type="matrix" values="0 0 0 0 0 0 0 0 0 0 0 0 0 0 0 0 0 0 127 0" result="hardAlpha"/>
<feOffset dy="4"/>
<feGaussianBlur stdDeviation="2"/>
<feComposite in2="hardAlpha" operator="arithmetic" k2="-1" k3="1"/>
<feColorMatrix type="matrix" values="0 0 0 0 0 0 0 0 0 0 0 0 0 0 0 0 0 0 0.25 0"/>
<feBlend mode="normal" in2="shape" result="effect1_innerShadow"/>
<feGaussianBlur stdDeviation="4" result="effect2_foregroundBlur"/>
</filter>
<linearGradient id="paint0_linear" x1="267.615" y1="88.9124" x2="192.989" y2="315.405" gradientUnits="userSpaceOnUse">
<stop stop-color="#CCCCCC"/>
<stop offset="0.375" stop-color="#E2E1E1"/>
<stop offset="0.723958" stop-color="#EBE9E9"/>
</linearGradient>
<linearGradient id="paint1_linear" x1="116" y1="82" x2="116" y2="355" gradientUnits="userSpaceOnUse">
<stop offset="0.208333" stop-color="#EBE9E9"/>
<stop offset="0.421875" stop-color="#E4E3E3"/>
<stop offset="1" stop-color="#D1D1D1"/>
</linearGradient>
<linearGradient id="paint2_linear" x1="101" y1="332.5" x2="101" y2="354" gradientUnits="userSpaceOnUse">
<stop stop-color="#D5D5D5"/>
<stop offset="0.53125" stop-color="white"/>
</linearGradient>
<linearGradient id="paint3_linear" x1="64.75" y1="0" x2="64.75" y2="43" gradientUnits="userSpaceOnUse">
<stop stop-color="#E2E1E1"/>
<stop offset="1" stop-color="#E2E1E1" stop-opacity="0"/>
</linearGradient>
<linearGradient id="paint4_linear" x1="64.75" y1="0" x2="64.75" y2="43" gradientUnits="userSpaceOnUse">
<stop stop-color="#E2E1E1"/>
<stop offset="1" stop-color="#E2E1E1" stop-opacity="0"/>
</linearGradient>
<linearGradient id="paint5_linear" x1="64.75" y1="0" x2="64.75" y2="43" gradientUnits="userSpaceOnUse">
<stop stop-color="#E2E1E1"/>
<stop offset="1" stop-color="#E2E1E1" stop-opacity="0"/>
</linearGradient>
<linearGradient id="paint6_linear" x1="64.75" y1="0" x2="64.75" y2="43" gradientUnits="userSpaceOnUse">
<stop stop-color="#E2E1E1"/>
<stop offset="1" stop-color="#E2E1E1" stop-opacity="0"/>
</linearGradient>
<linearGradient id="paint7_linear" x1="64.75" y1="0" x2="64.75" y2="43" gradientUnits="userSpaceOnUse">
<stop stop-color="#E2E1E1"/>
<stop offset="1" stop-color="#E2E1E1" stop-opacity="0"/>
</linearGradient>
<linearGradient id="paint8_linear" x1="166.75" y1="1" x2="166.75" y2="44" gradientUnits="userSpaceOnUse">
<stop stop-color="#E2E1E1"/>
<stop offset="1" stop-color="#E2E1E1" stop-opacity="0"/>
</linearGradient>
<linearGradient id="paint9_linear" x1="166.75" y1="1" x2="166.75" y2="44" gradientUnits="userSpaceOnUse">
<stop stop-color="#E2E1E1"/>
<stop offset="1" stop-color="#E2E1E1" stop-opacity="0"/>
</linearGradient>
<linearGradient id="paint10_linear" x1="166.75" y1="1" x2="166.75" y2="44" gradientUnits="userSpaceOnUse">
<stop stop-color="#E2E1E1"/>
<stop offset="1" stop-color="#E2E1E1" stop-opacity="0"/>
</linearGradient>
<linearGradient id="paint11_linear" x1="166.75" y1="1" x2="166.75" y2="44" gradientUnits="userSpaceOnUse">
<stop stop-color="#E2E1E1"/>
<stop offset="1" stop-color="#E2E1E1" stop-opacity="0"/>
</linearGradient>
<linearGradient id="paint12_linear" x1="166.75" y1="1" x2="166.75" y2="44" gradientUnits="userSpaceOnUse">
<stop stop-color="#E2E1E1"/>
<stop offset="1" stop-color="#E2E1E1" stop-opacity="0"/>
</linearGradient>
<linearGradient id="paint13_linear" x1="147.75" y1="329" x2="147.75" y2="348.5" gradientUnits="userSpaceOnUse">
<stop stop-color="#D5D5D5" stop-opacity="0.15"/>
<stop offset="0.395833" stop-color="white"/>
</linearGradient>
</defs>
</svg>
