<svg width="205" height="374" viewBox="0 0 205 374" fill="none" xmlns="http://www.w3.org/2000/svg">
<path d="M113.787 323.56C156.423 325.736 121.675 290.174 121.675 290.174L97.4001 272.915C97.4001 272.915 77.5673 237.191 71.2459 231.922C64.9244 226.653 56.9245 211.156 52.4246 200.656C47.9246 190.156 36.9245 183.656 29.9244 181.656C22.9243 179.656 3.45098 181.656 3.45106 190.476C3.45114 199.295 12.2458 199.922 19.0553 197.197C25.8648 194.473 32.6214 201.188 36.8443 215.422C41.0672 229.656 45.2747 238.04 55.4244 249.156C65.9244 260.656 61.2813 270.339 62.5259 281.658C63.7705 292.976 67.8068 305.279 73.7658 312.928C83.3864 325.276 106.445 323.186 113.787 323.56Z" fill="#67554B"/>
<path d="M71.7412 232.007C71.7412 232.007 68.3461 236.189 63.7828 238.527C59.2195 240.864 55.5648 240.293 55.5648 240.293C55.8758 242.631 59.4784 242.811 64.0417 240.473C68.605 238.136 72.0522 234.345 71.7412 232.007Z" fill="#2C2303"/>
<path d="M64.0101 226.865C64.0101 226.865 60.2654 229.76 55.5836 231.176C50.9017 232.591 47.4135 231.884 47.4135 231.884C47.4653 233.669 50.9448 234.078 55.6267 232.662C60.3086 231.246 64.0619 228.651 64.0101 226.865Z" fill="#2C2303"/>
<path d="M53.1758 209.422C53.1758 209.422 53.6732 214.806 52.0004 219.348C50.3277 223.89 47.246 225.523 47.246 225.523C49.1408 227.263 51.9049 225.339 53.5777 220.797C55.2505 216.254 55.0705 211.162 53.1758 209.422Z" fill="#2C2303"/>
<path d="M44.1756 193.422C44.1756 193.422 45.1134 199.21 43.4406 203.752C41.7679 208.295 38.2459 209.523 38.2459 209.523C40.5908 211.676 43.7199 210.087 45.3926 205.545C47.0654 201.003 46.5205 195.575 44.1756 193.422Z" fill="#2C2303"/>
<path d="M36.4043 191.292C36.4043 191.292 37.1652 194.646 36.2637 197.094C35.3622 199.542 33.2085 199.97 33.2085 199.97C34.7335 201.37 36.6316 200.708 37.5332 198.26C38.4347 195.812 37.9293 192.692 36.4043 191.292Z" fill="#2C2303"/>
<path d="M17.0716 186.422C17.0716 186.422 17.7614 190.095 16.6822 192.733C15.6029 195.371 13.2458 195.774 13.2458 195.774C14.8454 197.342 16.9345 196.676 18.0137 194.038C19.093 191.4 18.6712 187.99 17.0716 186.422Z" fill="#2C2303"/>
<path d="M12.918 185.676C12.918 185.676 10.7817 188.677 10.1738 191.167C9.56591 193.657 10.7213 196.763 10.7213 196.763C9.7528 197.226 6.94677 193.245 7.64 190.405C8.22785 187.997 9.50037 186.088 12.918 185.676Z" fill="#2C2303"/>
<path d="M48.0343 203.727C48.0343 203.727 47.6282 208.281 45.9554 212.823C44.2826 217.365 42.1046 219.828 42.1046 219.828C43.0756 220.719 45.091 218.107 46.7637 213.565C48.4365 209.023 49.0054 204.618 48.0343 203.727Z" fill="#2C2303"/>
<path d="M28.9696 186.422C28.9696 186.422 27.1673 188.994 26.4886 191.983C25.8099 194.972 26.5638 197.018 26.5638 197.018C25.2838 197.17 24.7444 195.098 25.423 192.109C26.1017 189.12 27.6895 186.574 28.9696 186.422Z" fill="#2C2303"/>
<path d="M70.964 240.156C70.964 240.156 71.377 245.47 67.1345 248.346C62.892 251.222 55.9249 250.352 55.9249 250.352C59.8628 253.401 66.1701 253.76 70.4126 250.883C74.6551 248.007 74.902 243.204 70.964 240.156Z" fill="#2C2303"/>
<path d="M86.0913 272.798C86.0913 272.798 84.6219 276.264 81.582 277.073C78.542 277.883 75.3151 275.667 75.3151 275.667C76.3322 278.539 79.3887 280.274 82.4287 279.465C85.4686 278.655 87.1084 275.67 86.0913 272.798Z" fill="#2C2303"/>
<path d="M103.09 287.945C103.09 287.945 99.8705 292.411 95.1353 291.595C90.4002 290.778 86.3047 285.051 86.3047 285.051C86.9373 290.293 90.9268 295.142 95.662 295.959C100.397 296.775 103.723 293.188 103.09 287.945Z" fill="#2C2303"/>
<path d="M103.429 154.938C103.429 154.938 107.778 197.057 84.7729 232.241C67.7729 258.241 66.5682 284.434 73.7729 316.241C80.9776 348.049 113.028 349.12 113.028 349.12H142.782H166.97C166.97 349.12 220.302 324.147 197.344 267.119C174.386 210.09 172.935 154.938 172.935 154.938C172.935 154.938 178.588 148.952 151.117 136.953C123.646 124.955 103.429 154.938 103.429 154.938Z" fill="#67554B"/>
<path d="M88.4512 271.975C88.4512 271.975 79.1975 338.496 96.2441 345.394C113.291 352.293 147.958 354.508 160.89 352.293C173.823 350.077 181.06 339.595 181.06 339.595C181.06 339.595 190.293 282.471 183.723 266.711C177.153 250.951 168.011 184.724 129.231 214.6C90.4512 244.476 88.4512 271.975 88.4512 271.975Z" fill="white"/>
<path d="M81.0483 263.458L117.676 353.854H138.059L129.836 311.242L115.357 266.242H162.532L149.341 311.242L142.406 353.854L159.812 353.135L195.707 263.458C195.707 263.458 192.797 143.561 165.709 136.341C165.709 136.341 149.48 118.733 149.705 112.541C149.931 106.35 119.537 106.806 122.918 112.998C126.3 119.189 110.484 136.341 110.484 136.341C84.5403 145.016 81.0483 263.458 81.0483 263.458Z" fill="#67554B"/>
<path d="M157.733 124.708C152.107 118.789 147.144 106.242 147.144 106.242L134.852 108.085C135.541 111.46 121.866 118.211 118.273 124.708C114.68 131.205 108.773 135.742 108.773 135.742C108.773 135.742 105.804 137.811 102.773 140.242C102.773 140.242 120.298 151.484 144.773 150.246C158.903 149.532 174.273 141.742 174.273 141.742L168.761 137.28L157.733 124.708Z" fill="#FCFCFC"/>
<path d="M121.42 345.58C115.698 342.812 117.554 353.444 117.554 353.444C117.554 353.444 108.585 361.045 108.275 362.901C107.966 364.757 107.812 369.927 109.584 372.025C111.357 374.123 128.225 373.225 129.815 372.475C131.404 371.726 134.102 365.049 135.03 363.442C135.227 363.102 135.463 362.456 135.713 361.649C135.713 361.649 135.457 363.142 136.82 363.442C138.182 363.743 139.119 363.077 139.119 363.077C139.119 363.077 140.782 363.325 140.711 358.867C140.64 354.41 138 351.795 138 351.795C138.131 350.03 137.91 347.402 135.571 346.817C131.974 345.918 131.206 351.795 128.457 351.795C125.708 351.795 127.143 348.349 121.42 345.58Z" fill="#FBFBFB"/>
<path d="M142.552 348.349C141.337 349.88 141.569 352.331 142.055 354.056C141.621 355.782 141.067 355.907 141.277 358.655C141.487 361.403 141.597 362.299 143.329 362.688C145.06 363.077 144.563 361.649 145.06 361.649C145.558 361.649 147.408 368.731 149.103 369.628C150.798 370.525 155.521 371.152 155.521 371.152C155.521 371.152 166.733 371.097 167.893 369.628C169.053 368.159 168.211 362.944 167.279 360.487C166.346 358.03 159.464 352.694 159.464 352.694C159.464 352.694 160.006 350.065 160.385 348.349C160.765 346.632 159.244 351.302 157.995 351.302C156.746 351.302 157.169 348.89 155.521 349.369C153.872 349.848 153.974 351.795 150.495 351.795C147.015 351.795 143.767 346.817 142.552 348.349Z" fill="#FBFBFB"/>
<path d="M121.42 345.58C115.698 342.812 117.554 353.444 117.554 353.444C117.554 353.444 108.585 361.045 108.275 362.901C107.966 364.757 107.812 369.927 109.584 372.025C111.357 374.123 128.225 373.225 129.815 372.475C131.404 371.726 134.102 365.049 135.03 363.442C135.227 363.102 135.463 362.456 135.713 361.649C135.713 361.649 135.457 363.142 136.82 363.442C138.182 363.743 139.119 363.077 139.119 363.077C139.119 363.077 140.782 363.325 140.711 358.867C140.64 354.41 138 351.795 138 351.795C138.131 350.03 137.91 347.402 135.571 346.817C131.974 345.918 131.206 351.795 128.457 351.795C125.708 351.795 127.143 348.349 121.42 345.58Z" stroke="#6E5842" stroke-opacity="0.38" stroke-width="0.4"/>
<path d="M142.552 348.349C141.337 349.88 141.569 352.331 142.055 354.056C141.621 355.782 141.067 355.907 141.277 358.655C141.487 361.403 141.597 362.299 143.329 362.688C145.06 363.077 144.563 361.649 145.06 361.649C145.558 361.649 147.408 368.731 149.103 369.628C150.798 370.525 155.521 371.152 155.521 371.152C155.521 371.152 166.733 371.097 167.893 369.628C169.053 368.159 168.211 362.944 167.279 360.487C166.346 358.03 159.464 352.694 159.464 352.694C159.464 352.694 160.006 350.065 160.385 348.349C160.765 346.632 159.244 351.302 157.995 351.302C156.746 351.302 157.169 348.89 155.521 349.369C153.872 349.848 153.974 351.795 150.495 351.795C147.015 351.795 143.767 346.817 142.552 348.349Z" stroke="#6E5842" stroke-opacity="0.38" stroke-width="0.4"/>
<path d="M111.273 188.741C107.638 201.42 108.272 217.445 108.272 217.445L115.451 266.34L138.638 275.18L162.623 266.34L170.273 217.445C170.273 217.445 173.157 202.275 168.773 188.741C164.388 175.207 154.712 173.661 139.773 173.741C124.833 173.821 114.272 178.277 111.273 188.741Z" fill="white"/>
<path d="M111.401 174.002C106.908 174.589 97.7706 181.502 97.9436 180.955C98.1166 180.407 98.5096 179.511 99.0082 178.548C99.5068 177.586 103.649 175.008 103.649 175.008L107.532 173.82C107.532 173.82 115.894 173.414 111.401 174.002Z" fill="#2C2303"/>
<path d="M173.005 203.509C179.31 200.081 187.671 185.637 187.838 186.456C188.005 187.274 188.112 188.678 188.112 190.23C188.112 191.783 183.888 197.604 183.888 197.604L178.971 201.456C178.971 201.456 166.7 206.938 173.005 203.509Z" fill="#2C2303"/>
<path d="M97.5939 209.284C102.12 207.532 108.122 200.151 108.241 200.569C108.361 200.987 108.438 201.705 108.438 202.498C108.439 203.291 105.406 206.267 105.406 206.267L101.876 208.235C101.876 208.235 93.0681 211.037 97.5939 209.284Z" fill="#2C2303"/>
<path d="M111.457 160.48C105.974 161.632 96.452 159.394 96.5137 159.77C96.5753 160.147 96.8144 160.723 97.1676 161.314C97.5207 161.905 101.996 162.474 101.996 162.474L106.54 162.023C106.54 162.023 116.939 159.327 111.457 160.48Z" fill="#2C2303"/>
<path d="M129.968 166.153C124.485 167.306 114.963 165.067 115.025 165.444C115.087 165.82 115.326 166.396 115.679 166.987C116.032 167.578 120.507 168.147 120.507 168.147L125.051 167.697C125.051 167.697 135.45 165 129.968 166.153Z" fill="#2C2303"/>
<path d="M151.182 163.627C159.422 163.799 175.787 154.931 175.506 155.771C175.225 156.61 174.562 157.958 173.71 159.384C172.857 160.811 165.4 163.935 165.4 163.935L158.325 164.883C158.325 164.883 142.941 163.455 151.182 163.627Z" fill="#2C2303"/>
<path d="M169.502 175.517C174.016 175.589 183.01 170.652 182.854 171.116C182.697 171.58 182.33 172.325 181.858 173.114C181.386 173.903 177.291 175.647 177.291 175.647L173.412 176.19C173.412 176.19 164.988 175.445 169.502 175.517Z" fill="#2C2303"/>
<path d="M105.845 227.771C98.0914 225.155 86.243 211.371 86.1816 212.249C86.1203 213.127 86.2194 214.606 86.465 216.225C86.7106 217.843 92.4634 223.269 92.4634 223.269L98.6971 226.537C98.6971 226.537 113.598 230.387 105.845 227.771Z" fill="#2C2303"/>
<path d="M101.431 193.546C97.8676 193.973 88.2471 190.312 88.6023 190.711C88.9574 191.111 89.6201 191.742 90.3879 192.406C91.1557 193.069 95.2864 194.288 95.2864 194.288L98.6483 194.458C98.6483 194.458 104.994 193.119 101.431 193.546Z" fill="#2C2303"/>
<path d="M171.19 226.059C178.944 223.443 190.792 209.658 190.854 210.536C190.915 211.414 190.816 212.894 190.57 214.512C190.325 216.13 184.572 221.556 184.572 221.556L178.338 224.824C178.338 224.824 163.437 228.674 171.19 226.059Z" fill="#2C2303"/>
<path d="M113.482 264.64C106.847 267.683 89.6368 266.195 90.2335 266.783C90.8301 267.37 91.9599 268.239 93.2791 269.105C94.5984 269.971 102.039 269.899 102.039 269.899L108.216 268.183C108.216 268.183 120.117 261.598 113.482 264.64Z" fill="#2C2303"/>
<path d="M66.2543 276.338C69.517 269.261 84.9513 259.038 84.0178 258.928C83.0842 258.817 81.4984 258.82 79.7561 258.951C78.0138 259.082 71.8721 264.122 71.8721 264.122L68.0052 269.742C68.0052 269.742 62.9916 283.416 66.2543 276.338Z" fill="#2C2303"/>
<path d="M194.268 315.266C192.796 319.764 185.509 326.13 185.96 326.212C186.411 326.294 187.174 326.312 188.011 326.249C188.847 326.186 191.733 323.029 191.733 323.029L193.516 319.474C193.516 319.474 195.74 310.769 194.268 315.266Z" fill="#2C2303"/>
<path d="M75.5307 317.039C77.9802 314.75 83.6102 312.958 83.4564 312.784C83.3025 312.609 82.9924 312.386 82.6188 312.191C82.2453 311.996 79.7559 313.086 79.7559 313.086L77.5619 314.724C77.5619 314.724 73.0811 319.328 75.5307 317.039Z" fill="#2C2303"/>
<path d="M199.229 305.055C195.645 304.875 186.777 299.634 187.06 300.088C187.343 300.543 187.89 301.279 188.535 302.064C189.18 302.848 193.047 304.75 193.047 304.75L196.333 305.486C196.333 305.486 202.813 305.235 199.229 305.055Z" fill="#2C2303"/>
<path d="M67.8946 282.998C72.9177 280.814 85.8852 282.188 85.4391 281.738C84.993 281.288 84.1467 280.62 83.1576 279.95C82.1685 279.28 76.5572 279.222 76.5572 279.222L71.8888 280.418C71.8888 280.418 62.8716 285.183 67.8946 282.998Z" fill="#2C2303"/>
<path d="M188.697 282.852C191.039 280.337 199.258 277.904 198.85 277.755C198.443 277.605 197.727 277.429 196.925 277.288C196.123 277.146 192.732 278.51 192.732 278.51L190.297 280.364C190.297 280.364 186.355 285.366 188.697 282.852Z" fill="#2C2303"/>
<path d="M189.697 292.852C192.039 290.337 200.258 287.904 199.85 287.755C199.443 287.605 198.727 287.429 197.925 287.288C197.123 287.146 193.732 288.51 193.732 288.51L191.297 290.364C191.297 290.364 187.355 295.366 189.697 292.852Z" fill="#2C2303"/>
<path d="M73.1975 294.327C77.691 296.082 83.7232 303.635 83.8354 303.202C83.9476 302.768 84.0135 302.026 84.0021 301.206C83.9906 300.387 80.9538 297.35 80.9538 297.35L77.4403 295.359C77.4403 295.359 68.704 292.572 73.1975 294.327Z" fill="#2C2303"/>
<path d="M165.266 267.807C172.611 271.306 191.47 269.958 190.827 270.6C190.184 271.242 188.962 272.187 187.531 273.126C186.101 274.066 177.721 273.886 177.721 273.886L171.205 271.71C171.205 271.71 157.922 264.308 165.266 267.807Z" fill="#2C2303"/>
<path d="M107.962 241.1C102.841 244.586 88.0331 245.709 88.6336 246.123C89.234 246.536 90.3312 247.113 91.5885 247.662C92.8458 248.21 99.1319 247.121 99.1319 247.121L104.081 244.819C104.081 244.819 113.084 237.614 107.962 241.1Z" fill="#2C2303"/>
<path d="M169.332 240.694C174.453 244.18 189.261 245.304 188.66 245.717C188.06 246.131 186.963 246.707 185.705 247.256C184.448 247.805 178.162 246.715 178.162 246.715L173.213 244.413C173.213 244.413 164.21 237.209 169.332 240.694Z" fill="#2C2303"/>
<path d="M129.51 325.187C124.767 329.229 112.684 331.818 113.09 332.179C113.497 332.541 114.272 333.019 115.181 333.454C116.09 333.889 121.331 332.167 121.331 332.167L125.72 329.345C125.72 329.345 134.252 321.146 129.51 325.187Z" fill="#2C2303"/>
<path d="M151.163 319.204C155.146 322.585 165.312 324.734 164.969 325.038C164.626 325.341 163.972 325.744 163.206 326.111C162.44 326.477 158.032 325.043 158.032 325.043L154.344 322.684C154.344 322.684 147.179 315.823 151.163 319.204Z" fill="#2C2303"/>
<path d="M128.688 313.216C120.466 312.666 105.061 302.406 105.257 303.266C105.453 304.127 105.978 305.526 106.684 307.021C107.39 308.516 114.502 312.279 114.502 312.279L121.451 313.842C121.451 313.842 136.91 313.766 128.688 313.216Z" fill="#2C2303"/>
<path d="M154.088 307.01C161.375 306.825 174.684 298.861 174.543 299.565C174.401 300.269 170.928 301.938 170.356 303.148C169.784 304.359 163.603 307.231 163.603 307.231L160.545 307.763C160.545 307.763 146.801 307.195 154.088 307.01Z" fill="#2C2303"/>
<path d="M97.9305 287.962C104.576 291.206 121.872 290.128 121.268 290.708C120.665 291.288 119.525 292.139 118.194 292.983C116.864 293.827 109.39 293.569 109.39 293.569L103.198 291.679C103.198 291.679 91.2853 284.717 97.9305 287.962Z" fill="#2C2303"/>
<path d="M176.49 279.64C172.08 285.308 156.074 291.53 156.89 291.799C157.705 292.068 159.131 292.356 160.725 292.559C162.318 292.763 168.89 289.426 168.89 289.426L173.539 285.159C173.539 285.159 180.9 273.972 176.49 279.64Z" fill="#2C2303"/>
<path d="M114.964 277.308C110.712 279.151 100.719 278.154 101.006 278.519C101.294 278.884 101.864 279.424 102.547 279.963C103.23 280.503 107.63 280.494 107.63 280.494L111.465 279.466C111.465 279.466 119.216 275.465 114.964 277.308Z" fill="#2C2303"/>
<path d="M167.314 258.192C171.566 260.035 181.559 259.038 181.272 259.403C180.984 259.768 180.413 260.308 179.73 260.848C179.047 261.387 174.648 261.378 174.648 261.378L170.813 260.35C170.813 260.35 163.062 256.349 167.314 258.192Z" fill="#2C2303"/>
<path fill-rule="evenodd" clip-rule="evenodd" d="M143.556 45.315C143.556 45.315 136.107 45.9548 123.038 48.7695C109.97 51.5841 100.6 57.7859 100.6 57.7859C95.9382 61.8742 87.176 72.0005 86.0341 81.7103C84.8922 91.4201 88.4761 103.039 88.4761 103.039L99.4424 114.968C114.341 121.327 130.568 123.404 148.644 119.095C166.72 114.786 177.961 84.6074 177.961 84.6074C177.961 84.6074 174.063 61.3321 164.95 54.8765C164.95 54.8765 159.59 47.097 159.973 42.5979C160.356 38.0987 162.494 28.9699 162.494 28.9699C162.494 28.9699 152.147 35.0166 149.607 37.1251C147.067 39.2337 143.556 45.315 143.556 45.315Z" fill="#67554B"/>
<path d="M167.145 86.5909C176.248 82.423 177.267 81.3843 177.331 81.1419C177.317 81.0962 177.31 81.0727 177.31 81.0727C177.31 81.0727 177.345 81.0864 177.331 81.1419C177.577 81.9782 179.843 90.2411 175.489 97.7753C170.897 105.721 152.873 119.193 152.873 119.193C152.873 119.193 126.244 123.185 117.954 121.014L108.599 118.584L103.158 116.914L99.4479 115.019L92.1682 108.923L88.5304 104.026L86.8518 96.9846C109.794 108.584 118.97 101.68 123.051 99.3175C130.016 95.285 127.6 90.6062 131.784 86.2739C134.11 81.3533 129.21 75.476 136.659 73.7002C144.107 71.9245 147.386 79.9742 149.456 80.817C157.211 83.4822 158.81 90.4073 167.145 86.5909Z" fill="white"/>
<path d="M156.083 110.112C152.326 111.008 152.167 109.864 150.146 109.479M142.65 113.314C146.408 112.419 148.901 110.406 150.146 109.479M150.146 109.479C150.146 109.479 150.3 108.182 150.161 106.955C150.023 105.727 148.938 104.41 148.938 104.41" stroke="#D9C4A9"/>
<path d="M151.265 98.8411C153.238 100.286 150.425 105.228 148.978 105.051C147.531 104.875 143.609 101.855 144.548 100.442C145.487 99.0299 147.335 101.463 148.708 101.105C150.025 100.762 149.292 97.396 151.265 98.8411Z" fill="#FFC0C0"/>
<path d="M134.199 109.514C134.199 109.514 125.605 109.501 117.967 112.409C110.329 115.317 97.4505 125.897 97.4505 125.897M134.656 111.43C134.656 111.43 123.883 115.89 115.792 122.25C107.701 128.61 105.947 131.628 105.947 131.628M136.234 114.254C136.234 114.254 127.669 118.875 122.191 124.227C116.713 129.579 112.789 137.142 112.789 137.142" stroke="#D3D3D3"/>
<path d="M161.642 102.445C161.642 102.445 167.592 98.7069 174.364 97.7851C181.137 96.8633 194.651 100.35 194.651 100.35M161.553 104.573C161.553 104.573 171.237 103.592 179.621 105.528C188.006 107.464 190.428 109.339 190.428 109.339M161.418 107.806C161.418 107.806 169.515 107.98 175.578 110.22C181.641 112.459 187.361 117.375 187.361 117.375" stroke="#D3D3D3"/>
<path d="M105.1 58.9049L97.193 57.3199L80.209 51.301L86.5066 67.3492L95.2566 76.316L105.1 58.9049Z" fill="#67554B"/>
<path d="M93.5973 71.7616L87.8994 65.4082L80.3018 51.3523C80.3018 51.3523 79.2078 58.1595 79.4807 61.8116C79.7536 65.4636 82.0221 71.5249 83.4691 74.1759C84.916 76.8268 89.7706 82.6045 89.7706 82.6045L93.5973 71.7616Z" fill="#2C2303"/>
<path d="M149.244 36.8896C157.254 30.9717 162.569 28.925 162.569 28.925C162.569 28.925 152.788 38.3139 151.714 39.572C150.64 40.8301 147.103 45.1883 147.103 45.1883C147.103 45.1883 140.743 45.9386 137.847 46.1387C137.847 46.1387 141.233 42.8076 149.244 36.8896Z" fill="#2C2303"/>
<path d="M170.161 73.3455C172.265 81.0645 173.789 87.5439 167.752 91.1336C162.552 94.2251 158.669 94.4762 154.454 89.6086C151.617 84.3572 152.477 83.1098 155.598 80.0009C159.451 77.079 170.161 73.3455 170.161 73.3455Z" fill="#A0C563" stroke="#3D3D3D"/>
<path d="M106.628 90.8843C108.824 99.0909 112.189 104.555 119.632 104.568C126.043 104.579 129.732 102.704 130.991 95.9634C130.784 89.6182 129.33 88.9428 124.813 87.7886C119.726 87.2027 106.628 90.8843 106.628 90.8843Z" fill="#A0C563" stroke="#3D3D3D"/>
<path d="M158.753 89.9424C161.721 93.1057 166.491 93.1999 169.408 90.1529C172.325 87.1058 172.284 82.0713 169.316 78.9081C166.349 75.7448 161.578 75.6505 158.661 78.6976C155.744 81.7447 155.786 86.7791 158.753 89.9424Z" fill="#403304"/>
<path d="M129.926 98.0069C128.958 102.249 124.893 104.766 120.846 103.628C116.799 102.49 114.302 98.129 115.27 93.8868C116.238 89.6446 120.303 87.1279 124.35 88.2656C128.397 89.4033 130.893 93.7646 129.926 98.0069Z" fill="#403304"/>
</svg>
