<svg width="332" height="354" viewBox="0 0 332 354" fill="none" xmlns="http://www.w3.org/2000/svg">
<path d="M290.485 187L331 304.715L259.503 342H217.399L194.361 331.88L132 304.715L164.571 187" stroke="black"/>
<path d="M314 80C293.986 108.826 285.787 92.2029 261.358 112.658C236.93 133.114 221.103 133.114 194.954 112.658C168.805 92.2029 161.924 106.442 143 80" stroke="black"/>
<path d="M314 80L246.834 327.639L255.743 353H232.098L222.846 327.639V204.317L218.048 327.639L212.222 347.53L193.375 341.563L197.487 327.639L143 80" stroke="black"/>
<path d="M314 80C246.28 -2.09447 208.896 2.12229 143 80" stroke="black"/>
<path d="M270.507 55.6395C261.123 58.428 255.611 67.3529 258.03 75.4899C260.448 83.6269 269.939 88.0934 279.322 85.3049C288.706 82.5163 294.218 73.5915 291.8 65.4545C289.381 57.3175 279.89 52.8509 270.507 55.6395Z" stroke="black"/>
<path d="M191.507 55.6395C182.123 58.428 176.611 67.3529 179.03 75.4899C181.448 83.6269 190.939 88.0934 200.322 85.3049C209.706 82.5163 215.218 73.5915 212.8 65.4545C210.381 57.3175 200.89 52.8509 191.507 55.6395Z" stroke="black"/>
<path d="M222.453 79.5267C234.951 71.4945 239.129 65.243 254.453 79.5267L249.946 100L239.129 86.6687L226.96 100L222.453 79.5267Z" stroke="black"/>
<path d="M287.694 50L292 2L261 31.1236" stroke="black"/>
<path d="M171.306 50L167 2L198 31.1236" stroke="black"/>
<path d="M283.948 57.5032C269.815 57.5032 257.506 75.2247 273.462 85.5032" stroke="black"/>
<path d="M204.948 57.5032C190.815 57.5032 178.506 75.2247 194.462 85.5032" stroke="black"/>
<path d="M244.781 74.403C247.704 76.9522 240.152 84 240.152 84C240.152 84 230.408 76.4551 232.844 74.4031C235.28 72.3511 237.368 78.8046 240.152 78.7516C242.824 78.7008 243.349 73.1545 244.781 74.403Z" stroke="black"/>
<path d="M104.065 240.561C73.3488 8.03766 -65.4632 167.509 39.8494 152.417C102.379 220.05 15.1353 244.492 138 305.977C137.157 319.56 102.199 261.06 104.065 240.561Z" stroke="black"/>
</svg>
