<svg width="53" height="40" viewBox="0 0 53 40" fill="none" xmlns="http://www.w3.org/2000/svg">
<path d="M40.7982 22.0688C40.1378 18.3199 42.2245 14.818 45.4589 14.2471C48.6933 13.6762 51.8506 16.2525 52.511 20.0014C53.1714 23.7503 51.0847 27.2522 47.8503 27.8231C44.6158 28.394 41.4585 25.8177 40.7982 22.0688Z" fill="#FEB3B3"/>
<path d="M41.1665 6.4645C41.1665 10.1207 38.0225 11.0702 35.5433 14.7159C32.8855 18.6241 30.7471 22.1326 26.5038 22.1326C22.2606 22.1326 20.0291 18.6241 17.2744 14.7159C14.7049 11.0702 11.4664 10.1207 11.4664 6.4645C11.4664 -5.84565 18.3024 3.20905 26.5038 3.20905C34.7053 3.20905 41.1665 -5.84565 41.1665 6.4645Z" fill="#FEB3B3"/>
<path d="M29.4573 35.47C27.8501 32.0199 28.9603 28.0967 31.9369 26.7073C34.9134 25.3178 38.6293 26.9883 40.2365 30.4384C41.8436 33.8885 40.7335 37.8117 37.7569 39.2011C34.7803 40.5905 31.0645 38.92 29.4573 35.47Z" fill="#FEB3B3"/>
<path d="M0.121992 20.0014C0.782354 16.2525 3.93968 13.6762 7.17409 14.2471C10.4085 14.818 12.4952 18.3198 11.8348 22.0687C11.1744 25.8177 8.01712 28.3939 4.78271 27.823C1.54831 27.2522 -0.53837 23.7503 0.121992 20.0014Z" fill="#FEB3B3"/>
<path d="M12.1773 30.4384C13.7844 26.9883 17.5003 25.3178 20.4769 26.7072C23.4535 28.0966 24.5636 32.0198 22.9564 35.4699C21.3493 38.92 17.6334 40.5905 14.6568 39.2011C11.6802 37.8117 10.5701 33.8885 12.1773 30.4384Z" fill="#FEB3B3"/>
</svg>
