<svg width="53" height="40" viewBox="0 0 53 40" fill="none" xmlns="http://www.w3.org/2000/svg">
<ellipse rx="5.67214" ry="6.41039" transform="matrix(0.985478 -0.169806 0.178498 0.98394 7.10022 19.5403)" fill="#EC3D91"/>
<path d="M12.3452 33.0781C12.3436 29.6805 15.3443 28.7967 17.7092 25.4078C20.2445 21.7748 22.2842 18.5135 26.3346 18.5116C30.385 18.5098 32.5166 21.7691 35.1477 25.3998C37.602 28.7865 40.6937 29.6674 40.6952 33.0651C40.7005 44.5046 34.1714 36.0933 26.3427 36.0969C18.5141 36.1005 12.3504 44.5177 12.3452 33.0781Z" fill="#EC3D91"/>
<ellipse rx="5.65089" ry="6.4355" transform="matrix(0.910217 -0.414132 0.432045 0.901852 18.3661 8.45889)" fill="#EC3D91"/>
<ellipse rx="5.67214" ry="6.41038" transform="matrix(0.985633 0.168899 -0.177593 0.984104 45.9275 19.5225)" fill="#EC3D91"/>
<ellipse rx="5.65089" ry="6.4355" transform="matrix(0.910597 0.413295 -0.431215 0.902249 34.8608 8.45135)" fill="#EC3D91"/>
</svg>
